<svg xmlns="http://www.w3.org/2000/svg" xmlns:xlink="http://www.w3.org/1999/xlink" width="16" height="16" viewBox="0 0 16 16"><defs><clipPath id="b"><rect width="16" height="16"/></clipPath></defs><g id="a" clip-path="url(#b)"><g transform="translate(-3694.778 -1984.485)"><rect width="8.35" height="1.833" rx="0.916" transform="translate(3702.428 1985.859)" fill="#1a2b3a"/><rect width="8.35" height="1.833" rx="0.916" transform="translate(3702.428 1991.65)" fill="#1a2b3a"/><path d="M3703.781,1997.774h6.207a1,1,0,0,1,1.072.916h0a1,1,0,0,1-1.072.916h-6.207a1,1,0,0,1-1.072-.916h0A1,1,0,0,1,3703.781,1997.774Z" transform="translate(-0.281 -0.496)" fill="#1a2b3a"/><rect width="2.797" height="2.797" transform="translate(3696.222 1991.167)" fill="#1a2b3a"/><path d="M3695.646,1985.883l1.4,1.4,2.8-2.8.916.916-3.665,3.665-2.315-2.315Z" transform="translate(0 0)" fill="#1a2b3a"/><path d="M3695.646,1997.748l1.4,1.4,2.8-2.8.916.916-3.665,3.665-2.315-2.315Z" transform="translate(0 -0.446)" fill="#1a2b3a"/></g></g></svg>